<svg version="1.1" xmlns="http://www.w3.org/2000/svg" viewBox="0 0 675.3173065185547 315.72265625" width="675.3173065185547" height="315.72265625"><!-- svg-source:excalidraw --><metadata></metadata><defs><style class="style-fonts">
      </style></defs><rect x="0" y="0" width="675.3173065185547" height="315.72265625" fill="#ffffff"></rect><g stroke-linecap="round" transform="translate(10 27.530975341796875) rotate(0 119.95278930664062 119.83885192871094)"><path d="M32 0 C69.98 1.82, 112.17 -0.32, 207.91 0 M32 0 C73.27 -0.63, 113.23 -1.17, 207.91 0 M207.91 0 C230.11 1.93, 240.82 12.12, 239.91 32 M207.91 0 C228.44 1.7, 238.4 8.99, 239.91 32 M239.91 32 C239.13 75.47, 238.97 116.66, 239.91 207.68 M239.91 32 C240.31 88.43, 240.09 144.99, 239.91 207.68 M239.91 207.68 C238.83 228.39, 228.85 239.1, 207.91 239.68 M239.91 207.68 C239.43 230.68, 230.51 238.22, 207.91 239.68 M207.91 239.68 C152.24 241.08, 96.17 238.97, 32 239.68 M207.91 239.68 C162.78 241.4, 116.05 241.58, 32 239.68 M32 239.68 C8.78 240.32, 1.89 230.36, 0 207.68 M32 239.68 C10.89 237.42, 2.06 229.88, 0 207.68 M0 207.68 C-0.8 154.56, -3.21 101.13, 0 32 M0 207.68 C1.71 140.97, 0.86 74.47, 0 32 M0 32 C-0.35 11.76, 12.3 1.55, 32 0 M0 32 C2.27 9.68, 11.72 -1.38, 32 0" stroke="#1e1e1e" stroke-width="2" fill="none"></path></g><g stroke-linecap="round" transform="translate(48.5806884765625 61.68780517578125) rotate(0 48.07942199707031 49.98536682128906)"><path d="M61.25 12.5 C66.22 17.83, 70.99 23.55, 83.91 37.5 M61.25 12.5 C66.33 19.73, 72.79 24.15, 83.91 37.5 M83.91 37.5 C96.92 51.35, 94.18 50.79, 83.91 62.5 M83.91 37.5 C95.89 49.22, 95.79 49.54, 83.91 62.5 M83.91 62.5 C75.34 71.15, 65.39 80.06, 61.25 87.47 M83.91 62.5 C77.82 69.24, 71.8 75.42, 61.25 87.47 M61.25 87.47 C49.41 101.49, 48.76 99.18, 36.75 87.47 M61.25 87.47 C49.44 99.9, 47.58 101.96, 36.75 87.47 M36.75 87.47 C28.21 80.69, 21.47 71.53, 12.25 62.5 M36.75 87.47 C26.39 76.95, 17.68 68.25, 12.25 62.5 M12.25 62.5 C-0.52 50.7, 0.92 48.43, 12.25 37.5 M12.25 62.5 C1.85 48.49, -1.25 52.03, 12.25 37.5 M12.25 37.5 C17.74 33.56, 22.36 26.43, 36.75 12.5 M12.25 37.5 C18.21 30.22, 24.57 24.09, 36.75 12.5 M36.75 12.5 C48.55 1.55, 48.56 -0.48, 61.25 12.5 M36.75 12.5 C47.48 1.56, 48.06 -1.64, 61.25 12.5" stroke="#1e1e1e" stroke-width="2" fill="none"></path></g><g stroke-linecap="round" transform="translate(126.50387573242188 69.6337890625) rotate(0 45.55340576171875 46.16047668457031)"><path d="M32 2.38 C39.26 -0.66, 48.95 -0.86, 56.71 1.2 C64.47 3.27, 72.8 8.71, 78.54 14.79 C84.27 20.87, 89.65 29.5, 91.11 37.68 C92.57 45.86, 90.55 56.25, 87.31 63.86 C84.06 71.47, 78.16 78.65, 71.64 83.37 C65.12 88.09, 56.43 91.65, 48.21 92.18 C39.98 92.71, 29.64 90.72, 22.3 86.55 C14.95 82.37, 7.92 74.78, 4.15 67.12 C0.38 59.46, -1.45 48.93, -0.33 40.57 C0.79 32.21, 5.33 23.61, 10.88 16.98 C16.43 10.35, 28.94 3.3, 32.99 0.79 C37.05 -1.71, 34.89 1.09, 35.2 1.94 M54.71 -0.28 C62.25 0.88, 70.01 7.8, 75.68 13.6 C81.34 19.41, 86.76 26.74, 88.71 34.53 C90.67 42.33, 89.61 52.64, 87.41 60.36 C85.22 68.09, 81.63 75.73, 75.56 80.88 C69.48 86.02, 59.32 89.97, 50.97 91.25 C42.62 92.52, 32.9 92.32, 25.46 88.51 C18.03 84.71, 10.54 75.96, 6.36 68.42 C2.18 60.89, 0.17 51.19, 0.4 43.3 C0.62 35.42, 3.17 27.79, 7.72 21.11 C12.26 14.43, 20.2 6.44, 27.67 3.21 C35.13 -0.02, 48.34 2.17, 52.51 1.73 C56.69 1.28, 52.94 0.03, 52.74 0.55" stroke="#1e1e1e" stroke-width="2" fill="none"></path></g><g stroke-linecap="round" transform="translate(49.14385986328125 146.95803833007812) rotate(0 69.24314880371094 34.806304931640625)"><path d="M17.4 0 C51.78 0.67, 85.15 1.95, 121.08 0 M17.4 0 C52.87 0.62, 88.96 0.85, 121.08 0 M121.08 0 C132.29 1.89, 137.28 5.94, 138.49 17.4 M121.08 0 C132.81 1.28, 140.15 3.73, 138.49 17.4 M138.49 17.4 C137.41 27.38, 137.1 38.72, 138.49 52.21 M138.49 17.4 C138.25 30.84, 139.56 43.56, 138.49 52.21 M138.49 52.21 C139.91 62.99, 130.88 71.46, 121.08 69.61 M138.49 52.21 C136.33 65.28, 130.71 69.41, 121.08 69.61 M121.08 69.61 C81.54 68.17, 46.03 70.28, 17.4 69.61 M121.08 69.61 C83.49 69.59, 46.27 69.85, 17.4 69.61 M17.4 69.61 C5.94 71.26, 1.75 62.53, 0 52.21 M17.4 69.61 C6.78 69.6, -0.26 63.49, 0 52.21 M0 52.21 C-2.05 45.59, 0.91 35.11, 0 17.4 M0 52.21 C0.5 38.9, -0.4 24.5, 0 17.4 M0 17.4 C-0.08 6.96, 5.28 1.67, 17.4 0 M0 17.4 C0.99 7.56, 5.47 -0.17, 17.4 0" stroke="#1e1e1e" stroke-width="2" fill="none"></path></g><g stroke-linecap="round" transform="translate(543.9745941162109 10) rotate(0 48.07942199707031 49.98536682128906)"><path d="M61.25 12.5 C68.01 19.84, 73.97 28.57, 83.91 37.5 M61.25 12.5 C67.38 19.1, 72.02 25.06, 83.91 37.5 M83.91 37.5 C94.43 50.41, 97.3 48.29, 83.91 62.5 M83.91 37.5 C96.53 49.54, 94.04 51.45, 83.91 62.5 M83.91 62.5 C78.34 71.2, 71.34 78.76, 61.25 87.47 M83.91 62.5 C78.94 67.73, 74.1 73.6, 61.25 87.47 M61.25 87.47 C47.55 101.16, 48.64 98.44, 36.75 87.47 M61.25 87.47 C47.72 101.26, 50.7 99.5, 36.75 87.47 M36.75 87.47 C29.67 79.7, 21.59 70.58, 12.25 62.5 M36.75 87.47 C28.42 78.2, 20.93 69.44, 12.25 62.5 M12.25 62.5 C-0.97 49.38, 1.42 48.7, 12.25 37.5 M12.25 62.5 C2.13 47.81, -0.82 51.81, 12.25 37.5 M12.25 37.5 C18.64 31.51, 23.47 25.36, 36.75 12.5 M12.25 37.5 C18.69 30.33, 24.27 24.74, 36.75 12.5 M36.75 12.5 C47.11 -0.48, 47.82 1.19, 61.25 12.5 M36.75 12.5 C51.05 1.25, 49.81 -1.37, 61.25 12.5" stroke="#1e1e1e" stroke-width="2" fill="none"></path></g><g stroke-linecap="round" transform="translate(545.9178466796875 124.57362365722656) rotate(0 45.55340576171875 46.16047668457031)"><path d="M47.94 -0.69 C55.57 -0.94, 65.46 3.48, 72.21 8.67 C78.96 13.85, 85.47 22.47, 88.46 30.41 C91.46 38.35, 91.98 48.38, 90.16 56.32 C88.35 64.26, 83.24 72.27, 77.56 78.07 C71.88 83.88, 63.96 89.26, 56.1 91.15 C48.25 93.04, 38.39 92.34, 30.42 89.42 C22.44 86.51, 13.13 80.29, 8.23 73.67 C3.34 67.05, 1.37 57.97, 1.04 49.68 C0.7 41.39, 2.5 31.31, 6.23 23.94 C9.96 16.58, 15.64 9.31, 23.42 5.48 C31.19 1.66, 47.57 1.57, 52.9 1.01 C58.22 0.44, 55.56 1.49, 55.37 2.1 M60.16 3.16 C68.03 5.1, 77.13 11.67, 82.23 18.07 C87.34 24.48, 90.03 33.46, 90.79 41.57 C91.56 49.69, 90.37 59.32, 86.8 66.75 C83.23 74.18, 76.38 82, 69.38 86.16 C62.39 90.31, 52.94 91.98, 44.83 91.69 C36.73 91.4, 27.57 89.1, 20.77 84.39 C13.98 79.68, 7.49 70.97, 4.08 63.41 C0.68 55.86, -1.07 46.95, 0.36 39.07 C1.8 31.18, 7.04 22.29, 12.69 16.11 C18.35 9.93, 26.56 4.37, 34.29 1.97 C42.01 -0.43, 55.05 1.75, 59.02 1.73 C62.99 1.7, 58.29 0.77, 58.1 1.82" stroke="#1e1e1e" stroke-width="2" fill="none"></path></g><g stroke-linecap="round" transform="translate(526.8310089111328 236.11004638671875) rotate(0 69.24314880371094 34.806304931640625)"><path d="M17.4 0 C42.52 1.4, 70.84 -0.79, 121.08 0 M17.4 0 C49.62 0.47, 80.4 0.35, 121.08 0 M121.08 0 C134.1 1.47, 139.81 4.06, 138.49 17.4 M121.08 0 C131.38 -0.17, 138.41 6.15, 138.49 17.4 M138.49 17.4 C136.62 26.3, 136.28 31.39, 138.49 52.21 M138.49 17.4 C137.45 27.56, 138.03 37.04, 138.49 52.21 M138.49 52.21 C138.65 64.87, 131.48 70.78, 121.08 69.61 M138.49 52.21 C139.73 66.11, 133.09 67.67, 121.08 69.61 M121.08 69.61 C88.33 69.02, 56.4 70.44, 17.4 69.61 M121.08 69.61 C88.31 69.09, 57.05 69.62, 17.4 69.61 M17.4 69.61 C5.98 69.58, 1.45 64.14, 0 52.21 M17.4 69.61 C6.34 69.6, 0.04 65.38, 0 52.21 M0 52.21 C1.84 39.19, 1.59 27.06, 0 17.4 M0 52.21 C-1.14 42.12, -1 32.91, 0 17.4 M0 17.4 C0.18 5.18, 5.92 1.75, 17.4 0 M0 17.4 C0.72 4.58, 3.58 2.29, 17.4 0" stroke="#1e1e1e" stroke-width="2" fill="none"></path></g><g stroke-linecap="round"><g transform="translate(525.3601264860612 156.45295056424453) rotate(0 -125.54751062494609 -0.7305689724476849)" fill-rule="evenodd"><path d="M-251 -36.67 C-251 -36.67, -251 -36.67, -251 -36.67 M-251 -36.67 C-251 -36.67, -251 -36.67, -251 -36.67 M-251.27 -30.27 C-249.7 -31.18, -248.84 -34.25, -246.02 -36.31 M-251.27 -30.27 C-249.4 -32.11, -247.79 -34.25, -246.02 -36.31 M-250.87 -24.63 C-246.3 -29.41, -242.71 -33.86, -240.37 -36.7 M-250.87 -24.63 C-248.57 -27.76, -245.44 -29.52, -240.37 -36.7 M-250.48 -18.98 C-244.43 -27.27, -239.35 -31.31, -235.39 -36.34 M-250.48 -18.98 C-247.22 -22.62, -243.4 -28.65, -235.39 -36.34 M-250.74 -12.59 C-243.98 -21.95, -234.98 -30.63, -229.74 -36.74 M-250.74 -12.59 C-244.72 -19.91, -236.21 -29.69, -229.74 -36.74 M-250.34 -6.94 C-244.42 -14.94, -235.76 -25.64, -224.76 -36.38 M-250.34 -6.94 C-244.77 -14.11, -237.61 -20.43, -224.76 -36.38 M-250.6 -0.55 C-242.06 -8.65, -233.47 -17.88, -219.11 -36.77 M-250.6 -0.55 C-242.74 -10.67, -233.76 -19.69, -219.11 -36.77 M-250.21 5.1 C-236.34 -10.95, -220.59 -28.05, -214.13 -36.41 M-250.21 5.1 C-242.24 -2.93, -234.16 -13.83, -214.13 -36.41 M-250.47 11.5 C-236.94 -2.26, -225.55 -20.26, -209.14 -36.05 M-250.47 11.5 C-234.59 -7.49, -218.48 -24.77, -209.14 -36.05 M-250.08 17.14 C-232.95 -0.87, -217.09 -22, -203.5 -36.45 M-250.08 17.14 C-239.2 4.47, -228.7 -6.56, -203.5 -36.45 M-249.68 22.78 C-234.91 4.57, -217.68 -14.98, -198.51 -36.09 M-249.68 22.78 C-231.5 2.45, -213.5 -19.49, -198.51 -36.09 M-249.94 29.18 C-232.97 12.22, -220.6 -3.7, -192.87 -36.48 M-249.94 29.18 C-234.17 11.58, -217.81 -6.45, -192.87 -36.48 M-249.55 34.82 C-236.06 19.22, -223.88 5.89, -187.88 -36.12 M-249.55 34.82 C-228.97 11.44, -206.36 -13.56, -187.88 -36.12 M-243.91 34.43 C-225.98 14.05, -212.88 -2.06, -182.24 -36.51 M-243.91 34.43 C-226.23 14.36, -209.82 -4.39, -182.24 -36.51 M-238.92 34.79 C-213.13 7.1, -189.92 -19.71, -177.25 -36.15 M-238.92 34.79 C-217.23 8.79, -196.8 -14.87, -177.25 -36.15 M-233.28 34.39 C-215.91 12.28, -197.66 -7.19, -171.61 -36.55 M-233.28 34.39 C-214.49 12.09, -193.71 -9.12, -171.61 -36.55 M-228.29 34.75 C-215.08 20.68, -201.66 5.1, -166.62 -36.19 M-228.29 34.75 C-208.51 11.68, -187.93 -10.5, -166.62 -36.19 M-222.65 34.36 C-207.72 18.76, -194.19 2.63, -160.98 -36.58 M-222.65 34.36 C-200.56 10.36, -178.76 -16.44, -160.98 -36.58 M-217.66 34.72 C-204.7 21.01, -190.82 3.75, -155.99 -36.22 M-217.66 34.72 C-201.63 17.4, -187.45 0.77, -155.99 -36.22 M-212.67 35.08 C-195.62 16.41, -179.18 -3.05, -151 -35.86 M-212.67 35.08 C-191.04 10.11, -167.94 -15.82, -151 -35.86 M-207.03 34.68 C-189.11 13.03, -167.03 -9.72, -145.36 -36.26 M-207.03 34.68 C-191.94 18.48, -177.74 2.29, -145.36 -36.26 M-202.04 35.04 C-180.31 10.26, -161.97 -11.51, -140.37 -35.9 M-202.04 35.04 C-177.82 6.9, -152.65 -19.71, -140.37 -35.9 M-196.4 34.65 C-181.43 14.87, -165.02 -2.49, -134.73 -36.29 M-196.4 34.65 C-181.06 16.71, -168.01 0.8, -134.73 -36.29 M-191.41 35.01 C-168.78 12.07, -149.9 -11.52, -129.74 -35.93 M-191.41 35.01 C-174.44 16.11, -159.69 -3.06, -129.74 -35.93 M-185.77 34.62 C-163.95 6.48, -140.28 -18.31, -124.1 -36.33 M-185.77 34.62 C-165.16 12.36, -144.19 -11.63, -124.1 -36.33 M-180.78 34.98 C-164.56 16.53, -148.35 -4.24, -119.11 -35.97 M-180.78 34.98 C-161.84 12.43, -143.77 -7.47, -119.11 -35.97 M-175.14 34.58 C-157.39 13.4, -138.45 -9.42, -113.47 -36.36 M-175.14 34.58 C-158.97 16.22, -143.68 -2.1, -113.47 -36.36 M-170.15 34.94 C-151.23 11.08, -130.07 -8.51, -108.48 -36 M-170.15 34.94 C-156.17 21.23, -145.19 6.19, -108.48 -36 M-164.51 34.55 C-150.94 18.27, -137.77 5.02, -103.49 -35.64 M-164.51 34.55 C-149.3 15.07, -131.64 -2.98, -103.49 -35.64 M-159.52 34.91 C-139.62 12.75, -117.25 -12.48, -97.85 -36.04 M-159.52 34.91 C-137.53 8.98, -114.4 -18, -97.85 -36.04 M-153.88 34.51 C-135.92 12.44, -116.64 -8.68, -92.86 -35.68 M-153.88 34.51 C-137.59 15.61, -122.2 -3.08, -92.86 -35.68 M-148.89 34.87 C-124.58 8.86, -99.46 -20.47, -87.22 -36.07 M-148.89 34.87 C-125.93 9.82, -102.44 -16.06, -87.22 -36.07 M-143.25 34.48 C-121.66 12.96, -105.28 -11.49, -82.23 -35.71 M-143.25 34.48 C-126.62 14.86, -111.56 -3.36, -82.23 -35.71 M-62.55 -58.35 C-62.55 -58.35, -62.55 -58.35, -62.55 -58.35 M-62.55 -58.35 C-62.55 -58.35, -62.55 -58.35, -62.55 -58.35 M-138.26 34.84 C-121.35 16.91, -107.72 -1.54, -76.59 -36.1 M-138.26 34.84 C-117.51 10.88, -96.15 -12.22, -76.59 -36.1 M-62.81 -51.95 C-62.16 -53.19, -61.68 -53.45, -59.53 -55.73 M-62.81 -51.95 C-62.08 -53.23, -60.87 -54.44, -59.53 -55.73 M-133.27 35.2 C-122.01 20.14, -106.99 6.65, -71.6 -35.74 M-133.27 35.2 C-114.45 14.26, -96.79 -7.7, -71.6 -35.74 M-63.08 -45.56 C-61.49 -48.22, -58.22 -51.56, -56.52 -53.1 M-63.08 -45.56 C-61.39 -46.8, -59.83 -49.35, -56.52 -53.1 M-127.63 34.8 C-104.57 9.3, -81.79 -18.22, -65.96 -36.14 M-127.63 34.8 C-104.17 7.47, -81.9 -18.97, -65.96 -36.14 M-63.99 -38.4 C-61.75 -42.48, -59.35 -45.09, -54.15 -49.72 M-63.99 -38.4 C-60.64 -41.63, -57.74 -45.39, -54.15 -49.72 M-122.64 35.16 C-92.61 1.95, -67.45 -29.91, -51.13 -47.1 M-122.64 35.16 C-97.71 6.44, -72.09 -22.12, -51.13 -47.1 M-117 34.77 C-95.55 7.83, -70.72 -17.56, -48.11 -44.48 M-117 34.77 C-99.83 15.02, -83.63 -5.05, -48.11 -44.48 M-112.01 35.13 C-94.3 14.9, -75.96 -7.95, -45.1 -41.85 M-112.01 35.13 C-95.52 17.5, -79.93 -0.54, -45.1 -41.85 M-106.37 34.73 C-85.34 11.86, -66.11 -12.18, -42.08 -39.23 M-106.37 34.73 C-82.95 9.81, -60.49 -17.25, -42.08 -39.23 M-101.38 35.09 C-88.91 17.44, -73.08 2.5, -39.06 -36.6 M-101.38 35.09 C-78.88 8.74, -56.48 -17.75, -39.06 -36.6 M-95.74 34.7 C-78.73 14.99, -61.6 -3.65, -36.04 -33.98 M-95.74 34.7 C-76.92 12, -56.68 -10.45, -36.04 -33.98 M-90.75 35.06 C-78.71 20.39, -63.27 1.16, -33.68 -30.6 M-90.75 35.06 C-72.45 12.52, -52.82 -7.92, -33.68 -30.6 M-85.11 34.67 C-62.37 8.45, -40.54 -15.26, -30.66 -27.98 M-85.11 34.67 C-72.11 18.21, -58.32 3.88, -30.66 -27.98 M-80.12 35.03 C-65.29 15.19, -46.19 -4.18, -27.64 -25.35 M-80.12 35.03 C-66.49 19.72, -53.25 5.39, -27.64 -25.35 M-74.48 34.63 C-58.62 17.75, -45.16 -0.61, -24.62 -22.73 M-74.48 34.63 C-63.62 21.2, -51.14 6.67, -24.62 -22.73 M-69.49 34.99 C-52.48 14.52, -34.2 -5.55, -21.6 -20.1 M-69.49 34.99 C-56.14 19.23, -42.78 4.64, -21.6 -20.1 M-63.85 34.6 C-53.5 19.11, -40.04 7.22, -18.58 -17.48 M-63.85 34.6 C-53.3 22.06, -41.17 8.68, -18.58 -17.48 M-62.8 39.48 C-52.58 26.06, -40.04 16.72, -15.56 -14.85 M-62.8 39.48 C-47.14 20.94, -32.26 4.44, -15.56 -14.85 M-62.41 45.13 C-50.16 33.17, -40.81 19.78, -12.54 -12.23 M-62.41 45.13 C-46.25 26.94, -30.43 9.37, -12.54 -12.23 M-62.01 50.77 C-41.93 27.38, -21.49 4.03, -10.18 -8.85 M-62.01 50.77 C-46.52 33.79, -32.32 18.69, -10.18 -8.85 M-61.62 56.41 C-44.96 36.31, -26.13 17.34, -7.16 -6.23 M-61.62 56.41 C-50.23 42.16, -39.74 28.82, -7.16 -6.23 M-40.88 38.66 C-34.26 29.26, -23.96 22.76, -4.14 -3.6 M-40.88 38.66 C-32.22 30.29, -23.38 19.7, -4.14 -3.6 M-14.25 14.12 C-7.52 8.6, -4.4 4.82, -1.13 -0.98 M-14.25 14.12 C-11.33 10.05, -7.07 5.6, -1.13 -0.98" stroke="#ced4da" stroke-width="0.5" fill="none"></path><path d="M0 0 C-23.97 -20.31, -44.65 -40.91, -63.33 -58.72 M0 0 C-21.38 -18.63, -41.82 -39.6, -63.33 -58.72 M-63.33 -58.72 C-63.01 -52.91, -64.87 -45.7, -64.5 -35.87 M-63.33 -58.72 C-64.57 -51.87, -64.35 -47.79, -64.5 -35.87 M-64.5 -35.87 C-131.75 -33.62, -201.85 -36.19, -251.1 -36.56 M-64.5 -35.87 C-108.48 -37.83, -154.45 -37.6, -251.1 -36.56 M-251.1 -36.56 C-249.92 -10.79, -247.62 15.16, -249.76 34.38 M-251.1 -36.56 C-250.02 -16.37, -249.74 3.05, -249.76 34.38 M-249.76 34.38 C-203.74 34.68, -152.86 35.46, -62.63 34.68 M-249.76 34.38 C-190.23 35.43, -130.65 37, -62.63 34.68 M-62.63 34.68 C-62.67 39.99, -61.26 50.99, -61.94 57.26 M-62.63 34.68 C-62.47 41.8, -61.95 47.72, -61.94 57.26 M-61.94 57.26 C-44.95 40.53, -25.58 21.98, 0 0 M-61.94 57.26 C-42.6 39.89, -24.22 21.37, 0 0 M0 0 C0 0, 0 0, 0 0 M0 0 C0 0, 0 0, 0 0" stroke="#000000" stroke-width="1" fill="none"></path></g></g><mask></mask></svg>